<svg width="25" height="25" viewBox="0 0 25 25" fill="none" xmlns="http://www.w3.org/2000/svg">
<path d="M12.5 0C5.59375 0 0 5.59375 0 12.5C0 19.4062 5.59375 25 12.5 25C19.4062 25 25 19.4062 25 12.5C25 5.59375 19.4062 0 12.5 0ZM12.5 3.75C14.5687 3.75 16.25 5.43125 16.25 7.5C16.25 9.575 14.5687 11.25 12.5 11.25C10.4313 11.25 8.75 9.575 8.75 7.5C8.75 5.43125 10.4313 3.75 12.5 3.75ZM12.5 21.5C9.36875 21.5 6.61875 19.9 5 17.475C5.03125 14.9937 10.0062 13.625 12.5 13.625C14.9938 13.625 19.9625 14.9937 20 17.475C18.3813 19.9 15.6313 21.5 12.5 21.5Z" fill="#9F9F9F"/>
</svg>
