<svg width="162" height="200" viewBox="0 0 162 200" fill="none" xmlns="http://www.w3.org/2000/svg">
<path d="M96.8448 55.8997H98.2104L98.4835 56.1625L106.131 57.2141L111.593 58.5285L117.328 60.3688L119.786 61.4203L124.156 63.2605L128.799 65.6265L132.077 67.7296L135.9 70.3585L139.724 73.5131L143.274 76.6678L146.552 80.0853L150.102 84.5544L152.56 88.2349L154.199 90.8637L156.384 95.07L157.476 97.6988L158.295 100.065L159.934 105.06L161.027 111.369L161.3 111.632L161.573 116.627V158.163L160.753 159.477H152.014L124.156 158.952L121.698 158.163L121.425 157.9L121.152 118.993L120.879 118.73L120.333 113.735L118.148 107.426L115.69 102.957L112.959 99.539L109.681 96.1215L106.404 93.7555L102.853 91.6524L97.6642 89.2864L94.1137 88.2349L88.6514 87.1833L84.5547 86.6575L79.3656 86.3947L78.5462 85.606L78 66.1523V57.477L78.8193 56.4254L81.0042 56.1625L96.8448 55.8997Z" fill="#C9C8CF"/>
<path d="M68.6362 56.9512H70.8211L71.9135 57.7399V62.9976L71.3673 74.5647L71.0942 82.7142L70.8211 86.3946L70.0017 87.1833L60.1696 88.4977L55.7998 89.5493L51.7031 91.1266L47.3333 93.2297L44.329 95.0699L40.5055 97.9617L38.0474 100.328L35.0432 104.008L32.312 108.477L30.6734 111.895L29.5809 114.787L28.7616 118.204L28.2153 121.359L27.9422 155.534L27.1229 156.323H12.921L9.64361 156.06L1.4502 155.797L0.903973 155.271L0.630859 154.22V122.41L0.903973 117.941L1.17709 117.678L1.72331 112.683L3.08888 107.951L4.45445 103.482L5.82002 100.328L8.82427 94.2813L11.0092 90.8637L11.8285 89.5493L13.7403 86.9204L16.7446 83.24L21.1144 78.7709L24.3917 75.6162L27.396 73.2502L30.6734 70.8843L34.2238 68.5183L40.7786 64.8378L44.0559 63.5234L47.0602 62.209L49.7913 61.4203L52.5224 60.3687L56.346 59.3172L60.1696 58.5285L66.9975 57.2141L68.6362 56.9512Z" fill="#C9C8CF"/>
<path d="M126.341 165.68H129.072L129.345 165.943L155.564 166.732L160.753 166.995L161.3 167.521L161.573 168.572V197.753L161.027 198.804L160.207 199.067H154.472L149.829 198.804L146.005 198.279L127.434 196.964L122.518 196.438L121.425 195.65V166.995L122.244 165.943L126.341 165.68Z" fill="#C9C8CF"/>
<path d="M1.4502 162H7.73182L23.0262 162.526L27.1229 162.789L27.9422 163.577V188.289L27.1229 189.34H20.5682L3.08888 188.026L1.17709 187.5L0.630859 186.186V163.577L1.17709 162.263L1.4502 162Z" fill="#C9C8CF"/>
<path d="M68.7524 0.95607L70.9373 1.21896L71.4835 1.74473L71.2104 4.11072L69.5717 6.21383L66.2944 7.52827L63.8363 8.84271L61.1052 11.2087L58.9203 14.1005L57.5547 16.7293L56.4623 20.4098V23.8273L58.101 26.982L60.559 28.2964L69.5717 28.8222L72.8491 29.8737L75.5802 31.4511L77.2189 33.2913L78.3114 34.8686L79.1307 37.2346L79.9501 40.6521L80.2232 43.8068L80.7694 44.5955L84.0468 45.1212L85.4123 46.4357L85.6854 47.2243V50.1161L85.4123 52.2192L72.0298 53.0079L69.0255 53.2708L66.2944 53.7965H66.0213V51.1677L66.8406 48.8017L68.2062 47.2243L69.5717 46.4357L72.0298 45.647L72.3029 45.3841V43.0181L71.2104 39.8635L69.2986 37.4975L67.1137 36.4459L59.7396 35.9202L57.2816 35.3944L54.8236 33.8171L53.1849 31.9768L52.0925 29.8737L51.2731 27.5077L51 25.9304V23.0387L51.5462 20.1469L52.6387 16.7293L54.2774 13.0489L56.1892 10.1571L58.3741 7.26538L60.0128 5.95094L61.3783 4.6365L64.1095 2.79629L66.8406 1.48185L68.7524 0.95607Z" fill="#C9C8CF"/>
<path d="M71.7311 103.482H74.7354L76.6472 104.271L78.0127 105.323L78.2859 105.848V123.725L77.1934 125.039L75.0085 125.828H73.0967L70.3656 124.513L69.2731 123.199L69 119.519V106.374L69.8193 104.534L71.7311 103.482Z" fill="#C9C8CF"/>
</svg>
