<svg width="250" height="30" viewBox="0 0 250 30" fill="none" xmlns="http://www.w3.org/2000/svg">
<path d="M113.591 0.828812H130.663L133.658 2.32638L135.156 3.82394L136.354 5.62102L136.953 7.41809V11.0122L135.755 14.0074L133.658 16.4035L131.562 17.6015H130.963L132.46 20.5967L136.054 24.4903L139.049 27.1859L140.247 28.384H135.755L132.76 27.1859L130.064 25.0893L127.368 22.3937L124.074 17.901L121.977 17.6015L122.277 26.2874L123.774 27.4854L124.673 28.0845H115.687L115.388 2.32638L113.591 1.12832V0.828812ZM121.977 3.52443V14.9059H126.47L128.566 13.7079L130.064 11.9108L130.364 11.0122V8.01712L129.165 5.62102L127.368 4.12345L125.571 3.52443H121.977Z" fill="#C9C8CF"/>
<path d="M28.5292 0.828812H32.7224L35.418 2.32638L38.4131 5.3215L41.1087 9.21517L45.0024 15.8044L46.5 18.2005V2.32638L45.3019 1.42784L44.4034 0.828812H53.9878L52.4902 2.02686L51.8912 2.62589V27.4854L53.0893 29.582L50.9927 29.2825L47.3985 27.1859L43.2053 22.9928L39.6112 17.901L36.6161 12.5098L36.017 11.3118L35.7175 28.0845H28.5292L29.4277 27.4854L30.6258 26.5869V2.32638L29.4277 1.42784L28.5292 0.828812Z" fill="#C9C8CF"/>
<path d="M200.749 0.828812H205.242L207.638 2.02686V2.62589L204.044 3.22491L201.348 4.42296L198.952 6.51955L197.754 8.91566L197.155 11.0122V16.104L198.053 18.5001L200.45 20.5967L201.049 20.8962H204.643L206.739 19.6981L208.237 17.302L208.836 15.2054V12.2103L207.937 9.21517L205.841 6.22004L205.541 5.62102L206.14 5.3215H208.836L211.531 6.51955L213.029 8.01712L214.527 10.4132L215.425 13.7079V17.302L214.527 20.8962L212.73 23.8913L210.034 26.2874L207.638 27.4854L205.242 28.0845H200.15L197.155 27.1859L194.459 25.3889L192.063 22.6932L190.566 19.0991L190.266 17.6015V12.2103L191.464 8.31663L193.261 5.3215L194.759 3.82394L197.155 2.02686L199.251 1.12832L200.749 0.828812Z" fill="#C9C8CF"/>
<path d="M142.045 0.828812H163.609L164.508 4.12345L164.208 5.02199L162.711 4.42296L160.614 4.12345H150.73V9.81419L158.817 9.51468L159.716 9.21517V8.61614H160.315V15.2054L158.518 14.3069L150.73 14.0074V22.0942L162.112 21.7947L164.807 21.1957L165.706 20.8962L164.807 24.1908L163.609 28.0845H142.045L142.943 27.4854L144.141 26.5869V2.32638L142.943 1.42784L142.045 0.828812Z" fill="#C9C8CF"/>
<path d="M6.9643 0.529297H9.3604L12.3555 2.02686L14.7516 5.02199L18.3458 12.5098L21.6404 19.9976L24.336 25.0893L26.7321 27.785V28.0845H13.5536L14.7516 26.5869V22.6932L14.4521 21.4952L4.26868 21.1957L3.66966 24.4903L3.37014 28.0845H-3.81816L-1.42206 23.8913L0.974043 19.0991L3.96917 11.6113L5.76625 5.92053L6.36527 2.9254V0.82881L6.9643 0.529297ZM9.65991 7.41809L8.46186 9.81419L5.76625 16.703V17.6015H13.5536L12.655 14.6064L9.95942 7.41809H9.65991Z" fill="#C9C8CF"/>
<path d="M57.8815 0.828812H79.1469L81.2434 7.41809L80.9439 8.01712L79.1469 7.41809L71.659 6.81907L71.9586 26.2874L73.4561 27.4854L74.0551 28.0845H62.9732L64.1712 27.1859L65.0698 26.2874L65.3693 6.81907L57.8815 7.41809L55.7849 8.01712L56.6834 4.42296L57.8815 0.828812Z" fill="#C9C8CF"/>
<path d="M177.986 0.828812H183.377L187.271 1.72735L188.169 2.32638L189.068 5.62102V6.51955L186.372 5.92053L185.174 5.62102H180.981L177.986 6.51955L175.29 8.31663L173.493 11.3118L173.194 12.5098V16.703L174.392 19.3986L176.189 21.4952L179.184 22.9928L180.083 23.2923H185.773L189.068 22.3937L188.768 24.4903L187.87 26.8864L185.474 27.785L183.976 28.0845H177.088L173.194 26.8864L170.199 24.7898L168.402 22.0942L167.204 19.0991L166.904 17.6015V11.6113L167.803 8.31663L169.3 5.3215L171.397 3.22491L174.991 1.42784L177.986 0.828812Z" fill="#C9C8CF"/>
<path d="M230.401 0.828812H241.483L239.985 2.02686L239.386 2.62589L239.087 22.0942L250.468 21.7947L253.164 21.1957L254.062 20.8962L253.164 24.4903L251.966 28.0845H230.401L231.599 27.1859L232.497 26.5869V2.32638L231.299 1.42784L230.401 0.828812Z" fill="#C9C8CF"/>
<path d="M216.923 0.828812H228.005L226.507 2.02686L225.908 2.62589V26.2874L227.406 27.4854L228.005 28.0845H216.923L217.821 27.4854L219.019 26.5869V2.32638L217.821 1.42784L216.923 0.828812Z" fill="#C9C8CF"/>
<path d="M83.0405 0.828812H94.1225L92.6249 2.02686L92.0259 2.62589V26.2874L93.5235 27.4854L94.1225 28.0845H83.0405L83.9391 27.4854L85.1371 26.5869V2.32638L83.9391 1.42784L83.0405 0.828812Z" fill="#C9C8CF"/>
<path d="M99.2142 16.4035H112.093V19.6981H99.2142V16.4035Z" fill="#C9C8CF"/>
</svg>
